<?xml version="1.0" encoding="utf-8"?>
<!-- Generator: Adobe Illustrator 26.4.1, SVG Export Plug-In . SVG Version: 6.00 Build 0)  -->
<svg version="1.1" id="Layer_1" xmlns="http://www.w3.org/2000/svg" xmlns:xlink="http://www.w3.org/1999/xlink" x="0px" y="0px"
	 viewBox="0 0 226.8 226.8" style="enable-background:new 0 0 226.8 226.8;" xml:space="preserve">
<style type="text/css">
	.st0{fill:#FF2689;}
</style>
<g id="ldYrmz.tif">
	<g>
		<path class="st0" d="M113.3,226.8c-31.3,0-62.7,0-94,0c-5.5,0-10.2-1.8-14-5.7c-3.7-3.8-5.3-8.4-5.3-13.6c0-34.4,0-68.9,0-103.3
			c0-28.3,0-56.7,0-85C0,13.1,2.2,8,7,4.2c3.6-3,7.8-4.2,12.5-4.2c23.4,0,46.8,0,70.3,0c39.2,0,78.4,0,117.6,0
			c6.2,0,11.4,2.1,15.4,7c3,3.6,4.2,7.8,4.2,12.4c0,24.6,0,49.2,0,73.9c0,38,0,76.1,0,114.1c0,5.3-1.5,9.9-5.3,13.8
			c-3.9,4-8.6,5.7-14.1,5.7c-26.5,0-53,0-79.4,0C123.1,226.8,118.2,226.8,113.3,226.8z M47.3,80.8c0.7,0,1.4,0,2,0
			c22.9,0,45.9,0,68.8,0c1.8,0,3.5,0.1,4.3,2.1c0.9,2-0.3,3.3-1.6,4.6c-7.7,7.7-15.4,15.4-23.1,23.1c-2.2,2.2-3.3,4.7-3.3,7.8
			c0,21.6,0,43.1,0,64.7c0,1.3,0.3,1.7,1.7,1.7c11.3-0.1,22.7,0,34,0c2.1,0,2.1,0,2.1-2.1c0-33.3,0-66.5,0-99.8c0-2.1,0-2.1,2.2-2.1
			c14.4,0,28.9,0,43.3,0c0.6,0,1.1,0,1.7-0.1c0-0.4,0.1-0.6,0.1-0.8c0-8.8,0-17.5,0-26.3c0-1.3-0.7-1.2-1.5-1.2
			c-43.1,0-86.2,0-129.3,0c-0.5,0-0.9,0-1.5,0.1C47.3,62,47.3,71.3,47.3,80.8z"/>
	</g>
</g>
<path d="M47.3,80.8c0-9.5,0-18.8,0-28.3c0.5,0,1-0.1,1.5-0.1c43.1,0,86.2,0,129.3,0c0.8,0,1.5-0.1,1.5,1.2c-0.1,8.8,0,17.5,0,26.3
	c0,0.2,0,0.4-0.1,0.8c-0.6,0-1.1,0.1-1.7,0.1c-14.4,0-28.9,0-43.3,0c-2.2,0-2.2,0-2.2,2.1c0,33.3,0,66.5,0,99.8c0,2.1,0,2.1-2.1,2.1
	c-11.3,0-22.7,0-34,0c-1.4,0-1.7-0.4-1.7-1.7c0-21.6,0-43.1,0-64.7c0-3.1,1.1-5.6,3.3-7.8c7.7-7.7,15.4-15.4,23.1-23.1
	c1.3-1.3,2.5-2.6,1.6-4.6c-0.8-1.9-2.5-2.1-4.3-2.1c-22.9,0-45.9,0-68.8,0C48.7,80.8,48.1,80.8,47.3,80.8z"/>
</svg>
