<?xml version="1.0" encoding="utf-8"?>
<!-- Generator: Adobe Illustrator 26.4.1, SVG Export Plug-In . SVG Version: 6.00 Build 0)  -->
<svg fill="#FFFFFF" version="1.1" id="Layer_1" xmlns="http://www.w3.org/2000/svg" xmlns:xlink="http://www.w3.org/1999/xlink" x="0px" y="0px"
	 viewBox="0 0 127.3 37.6" style="enable-background:new 0 0 127.3 37.6;" xml:space="preserve">
<g>
	<g>
		<path d="M67.1,12.6h3.5v17.8h-3.5V12.6z"/>
		<path d="M87.3,24.1c-0.2,1-0.6,1.9-1.3,2.6C85.1,27.6,84,28,82.5,28c-1.6,0-2.9-0.6-3.9-1.8c-1-1.2-1.4-2.9-1.4-4.9
			c0-1.9,0.5-3.5,1.4-4.6s2.3-1.7,3.9-1.7c1.5,0,2.7,0.4,3.6,1.3c0.7,0.7,1.1,1.5,1.3,2.6h3.5c-0.2-1.2-0.5-2.2-1.1-3.1
			c-0.7-1.2-1.7-2.1-3-2.7c-1.3-0.6-2.7-0.9-4.3-0.9c-1.7,0-3.3,0.4-4.6,1.1c-1.3,0.8-2.4,1.8-3.1,3.3c-0.7,1.4-1.1,3.1-1.1,4.9
			c0,2,0.4,3.7,1.1,5.1c0.8,1.4,1.8,2.5,3.1,3.3c1.3,0.8,2.9,1.2,4.6,1.2c1.6,0,3-0.3,4.3-0.9c1.3-0.6,2.3-1.5,3-2.7
			c0.6-0.9,0.9-2,1.1-3.2H87.3z"/>
		<path d="M63.6,14.9v-2.4h-4.9V8.8h-1.2l-1.7,2.9c-0.4,0.6-0.9,1.1-1.6,1.3l-2,0.7v1.3h1.4h1.6v10.8c0,1.3,0.2,2.3,0.6,3
			c0.4,0.7,1,1.2,1.8,1.4c0.8,0.2,2,0.4,3.5,0.4c0.7,0,1.6,0,2.4-0.1v-2.9c-0.9,0.1-1.7,0.1-2.3,0.1c-1,0-1.7-0.1-2.1-0.4
			c-0.4-0.3-0.6-0.9-0.6-1.8V14.9H63.6z"/>
		<path d="M106.2,26.4c-0.9-1.4-1.3-3.1-1.3-5c0-1.9,0.4-3.5,1.3-4.9c0.9-1.4,2-2.5,3.4-3.3c1.4-0.8,3-1.2,4.7-1.2
			c1.7,0,3.2,0.4,4.7,1.2c1.4,0.8,2.6,1.9,3.4,3.3c0.9,1.4,1.3,3.1,1.3,4.9c0,1.9-0.4,3.6-1.3,5c-0.8,1.4-2,2.6-3.4,3.3
			c-1.4,0.8-3,1.2-4.7,1.2c-1.7,0-3.3-0.4-4.7-1.2C108.2,28.9,107,27.8,106.2,26.4z M120.2,21.4c0-2-0.5-3.6-1.6-4.8
			c-1.1-1.1-2.5-1.7-4.3-1.7c-1.8,0-3.2,0.6-4.3,1.7c-1.1,1.1-1.6,2.7-1.6,4.8c0,2.1,0.5,3.7,1.6,4.9c1.1,1.2,2.5,1.8,4.3,1.8
			c1.8,0,3.2-0.6,4.3-1.8C119.7,25.1,120.2,23.4,120.2,21.4z"/>
		<circle cx="68.8" cy="8.8" r="2"/>
		<g>
			<path d="M126,13.9c-0.1,0-0.1-0.1-0.2-0.1v0c0.1,0,0.2,0,0.3-0.1c0.1-0.1,0.1-0.2,0.1-0.3c0-0.1,0-0.2-0.1-0.3
				c-0.1-0.1-0.2-0.1-0.4-0.1h-0.7v1.5h0.3V14h0.4c0.1,0,0.1,0,0.2,0c0,0,0.1,0,0.1,0.1c0,0,0,0.1,0,0.1l0.1,0.4h0.3l-0.1-0.5
				C126.1,14,126,13.9,126,13.9z M125.6,13.8h-0.4v-0.5h0.4c0.1,0,0.2,0,0.2,0.1c0.1,0,0.1,0.1,0.1,0.2c0,0.1,0,0.1-0.1,0.2
				C125.7,13.8,125.6,13.8,125.6,13.8z"/>
			<path d="M125.5,12c-1,0-1.8,0.8-1.8,1.8s0.8,1.8,1.8,1.8c1,0,1.8-0.8,1.8-1.8S126.5,12,125.5,12z M125.5,15.3
				c-0.8,0-1.5-0.7-1.5-1.5c0-0.8,0.7-1.5,1.5-1.5c0.8,0,1.5,0.7,1.5,1.5C127,14.6,126.3,15.3,125.5,15.3z"/>
		</g>
		<path d="M103.4,14.9v-2.4h-4.9V8.8h-1.2l-1.7,2.9c-0.4,0.6-0.9,1.1-1.6,1.3l-2,0.7v1.3h1.4H95v10.8c0,1.3,0.2,2.3,0.6,3
			c0.4,0.7,1,1.2,1.8,1.4c0.8,0.2,2,0.4,3.5,0.4c0.7,0,1.6,0,2.4-0.1v-2.9c-0.9,0.1-1.7,0.1-2.3,0.1c-1,0-1.7-0.1-2.1-0.4
			c-0.4-0.3-0.6-0.9-0.6-1.8V14.9H103.4z"/>
	</g>
	<g>
		<path d="M33.6,0.3H2.6c-1.7,0-3,1.4-3,3v30.9c0,1.7,1.4,3,3,3h30.9c1.7,0,3-1.4,3-3V3.3C36.6,1.7,35.2,0.3,33.6,0.3z M28.9,13.5
			h-7.7v17H15v-5l0,0v-6c0-0.4,0.2-0.8,0.5-1.1l4-4c0.1-0.1,0.2-0.2,0.2-0.4c0-0.1-0.1-0.3-0.2-0.4c-0.1-0.1-0.2-0.2-0.4-0.2H7.3
			V8.9h21.6V13.5z"/>
	</g>
</g>
</svg>
